<svg xmlns="http://www.w3.org/2000/svg" width="32" height="32" viewBox="0 0 32 32">
  <defs>
    <style>
      .cls-1 {
        fill: #0d0d0d;
        fill-rule: evenodd;
      }
    </style>
  </defs>
  <path id="banknote" class="cls-1" d="M478.415,5618.59l-10-10.01a2.009,2.009,0,0,0-1.9-.52,1.965,1.965,0,0,0-1.43,1.35,9.3,9.3,0,0,1-2.395,3.9,27.35,27.35,0,0,1-5.7,3.96,30.468,30.468,0,0,0-6.52,4.59,13.183,13.183,0,0,0-3.388,5.55,1.992,1.992,0,0,0,.5,2l10,10a1.99,1.99,0,0,0,1.9.53,1.963,1.963,0,0,0,.934-0.53,1.928,1.928,0,0,0,.5-0.82,9.233,9.233,0,0,1,2.4-3.9,27.3,27.3,0,0,1,5.7-3.96,30.487,30.487,0,0,0,6.519-4.59,13.244,13.244,0,0,0,3.388-5.55A1.992,1.992,0,0,0,478.415,5618.59ZM459,5638c-3.312-3.31-6.688-6.69-10-10,2.842-9.2,15.16-8.8,18-18,3.313,3.31,6.689,6.69,10,10C474.159,5629.2,461.841,5628.8,459,5638Zm7.561-15.1a2.684,2.684,0,0,0-.984-0.55,3.03,3.03,0,0,0-.989-0.11,3.685,3.685,0,0,0-1,.23c-0.335.13-.673,0.28-1.013,0.44-0.537-.62-1.075-1.23-1.612-1.79a1.142,1.142,0,0,1,.7-0.34,2.017,2.017,0,0,1,.653.07c0.211,0.05.4,0.09,0.582,0.13a0.567,0.567,0,0,0,.472-0.12,0.682,0.682,0,0,0,.237-0.48,0.811,0.811,0,0,0-.229-0.58,1.279,1.279,0,0,0-.769-0.44,2.25,2.25,0,0,0-.93.02,3.032,3.032,0,0,0-.9.36,3.158,3.158,0,0,0-.684.51c-0.065-.07-0.13-0.13-0.195-0.19a0.379,0.379,0,0,0-.543.03,0.378,0.378,0,0,0-.092.29,0.343,0.343,0,0,0,.127.25c0.065,0.06.13,0.11,0.2,0.17a4.621,4.621,0,0,0-.632,1.01,3.387,3.387,0,0,0-.305,1.06,2.135,2.135,0,0,0,.1.97,1.832,1.832,0,0,0,.594.79,2.29,2.29,0,0,0,1.668.52,5.006,5.006,0,0,0,2.074-.63c0.591,0.69,1.183,1.36,1.774,1.99a1.583,1.583,0,0,1-.663.37,1.013,1.013,0,0,1-.521-0.01,1.222,1.222,0,0,1-.434-0.21,4.139,4.139,0,0,0-.394-0.23,0.948,0.948,0,0,0-.4-0.1,0.677,0.677,0,0,0-.442.2,0.643,0.643,0,0,0-.246.5,0.867,0.867,0,0,0,.254.56,2.11,2.11,0,0,0,.658.48,2.371,2.371,0,0,0,.9.23,2.657,2.657,0,0,0,1.05-.16,3.043,3.043,0,0,0,1.1-.75c0.175,0.17.351,0.34,0.525,0.49a0.335,0.335,0,0,0,.274.09,0.34,0.34,0,0,0,.269-0.14,0.38,0.38,0,0,0,.094-0.29,0.349,0.349,0,0,0-.125-0.25c-0.176-.14-0.352-0.29-0.527-0.44a5.576,5.576,0,0,0,.716-1.14,3.479,3.479,0,0,0,.319-1.1,1.949,1.949,0,0,0-.119-0.94A1.914,1.914,0,0,0,466.561,5622.9Zm-5.59.68a0.974,0.974,0,0,1-.746-0.29,0.755,0.755,0,0,1-.2-0.33,0.958,0.958,0,0,1-.039-0.41,1.346,1.346,0,0,1,.136-0.47,1.823,1.823,0,0,1,.325-0.47c0.506,0.51,1.012,1.06,1.519,1.63A2.366,2.366,0,0,1,460.971,5623.58Zm4.717,2a1.988,1.988,0,0,1-.315.44c-0.559-.56-1.12-1.19-1.679-1.82,0.142-.07.293-0.13,0.455-0.2a1.783,1.783,0,0,1,.486-0.14,1.177,1.177,0,0,1,.494.02,1,1,0,0,1,.459.27,0.888,0.888,0,0,1,.266.44,1.221,1.221,0,0,1,.014.49A1.623,1.623,0,0,1,465.688,5625.58Zm-3.971,4.6h0a18.736,18.736,0,0,0-1.8,1.55,14.607,14.607,0,0,0-1.461,1.7l-0.684.93,0,0.01a0.5,0.5,0,0,0,.776.62,0.352,0.352,0,0,0,.074-0.1l0.639-.87a13.354,13.354,0,0,1,1.361-1.58,16,16,0,0,1,1.714-1.48h0a0.146,0.146,0,0,0,.051-0.04A0.5,0.5,0,0,0,461.717,5630.18Zm3.66-14.47a15.91,15.91,0,0,1-1.676,1.45,0.591,0.591,0,0,0-.119.08,0.512,0.512,0,0,0,0,.72,0.5,0.5,0,0,0,.7.01h0a17.309,17.309,0,0,0,1.8-1.55,13.825,13.825,0,0,0,1.461-1.7l0.684-.93,0-.01a0.5,0.5,0,0,0-.738-0.68,0.7,0.7,0,0,0-.087.12l-0.665.91A12.51,12.51,0,0,1,465.377,5615.71Z" transform="translate(-447 -5608)"/>
</svg>
