<svg xmlns="http://www.w3.org/2000/svg" width="71" height="58" viewBox="0 0 71 58">
  <defs>
    <style>
      .cls-1 {
        fill: #fff;
        fill-rule: evenodd;
      }
    </style>
  </defs>
  <path id="Shape_4_copy" data-name="Shape 4 copy" class="cls-1" d="M1455.1,8284.99h-61.2a4.861,4.861,0,0,1-4.9-4.83v-38.67a4.868,4.868,0,0,1,4.9-4.83h14.84a16.756,16.756,0,0,1-.15-3.62,6.086,6.086,0,0,1,6.12-6.05h19.58a6.086,6.086,0,0,1,6.12,6.05,15.73,15.73,0,0,0,.16,3.62h14.53a4.868,4.868,0,0,1,4.9,4.83v38.67A4.861,4.861,0,0,1,1455.1,8284.99Zm-30.49-9.73a14.5,14.5,0,1,0-14.69-14.5A14.6,14.6,0,0,0,1424.61,8275.26Z" transform="translate(-1389 -8227)"/>
</svg>
