<svg xmlns="http://www.w3.org/2000/svg" width="28" height="32" viewBox="0 0 28 32">
  <defs>
    <style>
      .cls-1 {
        fill: #fff;
        fill-rule: evenodd;
      }
    </style>
  </defs>
  <path id="cup" class="cls-1" d="M497.112,4316.02l-1.215-3.65A2,2,0,0,0,494,4311H476a2,2,0,0,0-1.9,1.37l-1.224,3.65A2,2,0,0,0,471,4318v3a2,2,0,0,0,2,2h1.034a1.643,1.643,0,0,0-.021.22l2,18A2,2,0,0,0,478,4343h14a2,2,0,0,0,1.987-1.78l2-18a1.643,1.643,0,0,0-.021-0.22H497a2,2,0,0,0,2-2v-3A1.986,1.986,0,0,0,497.112,4316.02ZM476,4313h18l1,3H475Zm2,28-0.333-3h14.666L492,4341H478Zm14.444-4H477.556l-1.112-10h17.112Zm1.223-11H476.333L476,4323h18Zm3.333-5H473v-3h24v3Z" transform="translate(-471 -4311)"/>
</svg>
