<svg xmlns="http://www.w3.org/2000/svg" width="18.688" height="18.6" viewBox="0 0 18.688 18.6">
  <defs>
    <style>
      .cls-1 {
        fill: #fff;
        fill-rule: evenodd;
      }
    </style>
  </defs>
  <path id="film_" data-name="film " class="cls-1" d="M478.65,10656.6h18.7v18.7h-18.7v-18.7Zm5.1,1.7h8.5v6.8h-8.5v-6.8Zm0,8.5h8.5v6.8h-8.5v-6.8Zm10.2-8.5h1.7v1.7h-1.7v-1.7Zm0,2.6h1.7v1.7h-1.7v-1.7Zm0,2.5h1.7v1.7h-1.7v-1.7Zm0,3.4h1.7v1.7h-1.7v-1.7Zm0,2.6h1.7v1.7h-1.7v-1.7Zm0,2.5h1.7v1.7h-1.7v-1.7Zm-13.6-13.6h1.7v1.7h-1.7v-1.7Zm0,2.6h1.7v1.7h-1.7v-1.7Zm0,2.5h1.7v1.7h-1.7v-1.7Zm0,3.4h1.7v1.7h-1.7v-1.7Zm0,2.6h1.7v1.7h-1.7v-1.7Zm0,2.5h1.7v1.7h-1.7v-1.7Z" transform="translate(-478.656 -10656.7)"/>
</svg>
