<svg xmlns="http://www.w3.org/2000/svg" width="22.94" height="20.4" viewBox="0 0 22.94 20.4">
  <defs>
    <style>
      .cls-1 {
        fill: #f7f7f7;
        fill-rule: evenodd;
      }
    </style>
  </defs>
  <path id="handset" class="cls-1" d="M1109.72,10676.2v-1.7h-0.02c0.01-.1.02-0.3,0.02-0.4v-9.4a7.225,7.225,0,0,0-14.45,0v9.4c0,0.1.02,0.3,0.03,0.4h-0.03v1.7a4.4,4.4,0,0,1-4.25-4.7,4.127,4.127,0,0,1,2.55-4.2v-2.6a8.925,8.925,0,0,1,17.85,0v2.6a4.115,4.115,0,0,1,2.55,4.2A4.4,4.4,0,0,1,1109.72,10676.2Zm-12.75,0h-0.85v-9.4h0.85v9.4Zm11.9,0h-0.85v-9.4h0.85v9.4Z" transform="translate(-1091.03 -10655.8)"/>
</svg>
