<svg xmlns="http://www.w3.org/2000/svg" width="32" height="32" viewBox="0 0 32 32">
  <defs>
    <style>
      .cls-1 {
        fill: #0d0d0d;
        fill-rule: evenodd;
      }
    </style>
  </defs>
  <path id="lab" class="cls-1" d="M991.681,5083.73a2.506,2.506,0,0,0-3.536,0l-1.411,1.41a2.5,2.5,0,0,0-.734,1.77,2.535,2.535,0,0,0,.371,1.32l-13.577,5.44a2.972,2.972,0,0,0-1.742,2.18,3.007,3.007,0,0,0,.835,2.69l12.72,12.58a2.985,2.985,0,0,0,2.045.88h0.076a3.171,3.171,0,0,0,.611-0.06,3.009,3.009,0,0,0,2.177-1.83l5.341-13.38a2.446,2.446,0,0,0,1.369.41,2.486,2.486,0,0,0,1.767-.73L999.4,5095a2.5,2.5,0,0,0,.006-3.54Zm-4.023,25.64a1.007,1.007,0,0,1-.726.61,1.77,1.77,0,0,1-.229.02,1.03,1.03,0,0,1-.682-0.29l-12.728-12.59a1,1,0,0,1,.306-1.62l6.217-2.49c4.19,1.39,8.38.05,12.57,4.52Zm10.334-15.79-1.413,1.41a0.492,0.492,0,0,1-.707,0l-1.768-1.76-1.433,3.58,0.121-.3c-3.01-3-6.07-3.38-8.83-3.72-0.887-.11-1.746-0.22-2.592-0.41l8.492-3.4-1.716-1.71a0.5,0.5,0,0,1,0-.71l1.413-1.41a0.493,0.493,0,0,1,.708,0l7.724,7.72A0.5,0.5,0,0,1,997.992,5093.58ZM987.5,5101a2.5,2.5,0,1,0-2.5-2.5A2.5,2.5,0,0,0,987.5,5101Zm0-4a1.5,1.5,0,1,1-1.5,1.5A1.5,1.5,0,0,1,987.5,5097Zm13-17a2.5,2.5,0,1,0,2.5,2.5A2.5,2.5,0,0,0,1000.5,5080Zm0,4a1.5,1.5,0,1,1,1.5-1.5A1.5,1.5,0,0,1,1000.5,5084ZM979,5097a2,2,0,1,0,2-2A2,2,0,0,0,979,5097Zm2-1a1,1,0,1,1-1,1A1,1,0,0,1,981,5096Zm3,8a1,1,0,1,0-1-1A1,1,0,0,0,984,5104Zm16-17a1,1,0,1,0,1,1A1,1,0,0,0,1000,5087Z" transform="translate(-971 -5080)"/>
</svg>
