<svg xmlns="http://www.w3.org/2000/svg" width="32" height="32" viewBox="0 0 32 32">
  <defs>
    <style>
      .cls-1 {
        fill: #fff;
        fill-rule: evenodd;
      }
    </style>
  </defs>
  <path id="like" class="cls-1" d="M1498.16,4321.47c-1.24-.33-4.19-0.32-8.48-0.44a14.724,14.724,0,0,0,.25-3.28c0-3.59-2.62-6.75-4.93-6.75a3.018,3.018,0,0,0-3,2.98c-0.02,2.01-.64,5.49-4,7.25-0.25.13-.95,0.48-1.05,0.52l0.05,0.05a3.135,3.135,0,0,0-2-.8h-3a3,3,0,0,0-3,3v16a3.009,3.009,0,0,0,3,3h3a2.966,2.966,0,0,0,2.67-1.73,0.06,0.06,0,0,0,.04.01c0.07,0.02.15,0.04,0.24,0.07a0.09,0.09,0,0,1,.05.01c0.58,0.14,1.68.41,4.05,0.95a29.437,29.437,0,0,0,5.98.69h5.46a3.784,3.784,0,0,0,3.59-1.93,6.953,6.953,0,0,0,.42-1.07,3.237,3.237,0,0,0,.03-1.76,4.485,4.485,0,0,0,1.64-2.58,3.859,3.859,0,0,0,0-2.73,4.687,4.687,0,0,0,1.34-2.77,3.721,3.721,0,0,0-.39-2.37,3.4,3.4,0,0,0,.85-2.18l0.02-.2c0-.14.01-0.22,0.01-0.51A3.7,3.7,0,0,0,1498.16,4321.47ZM1476,4340a1,1,0,0,1-1,1h-3a1,1,0,0,1-1-1v-16a1,1,0,0,1,1-1h3a1,1,0,0,1,1,1v16Zm22.98-14.47c-0.02.5-.23,1.47-1.98,1.47h-2a0.5,0.5,0,0,0-.5.5,0.5,0.5,0,0,0,.5.5h1.94a1.518,1.518,0,0,1,1.6,1.84,2.191,2.191,0,0,1-2.16,2.16H1494a0.5,0.5,0,0,0-.5.5,0.5,0.5,0,0,0,.5.5h1.97c1.69,0,1.54,1.29,1.3,2.05-0.32,1.01-.52,1.95-2.64,1.95h-1.64a0.5,0.5,0,0,0-.5.5,0.508,0.508,0,0,0,.5.5h1.57a1.052,1.052,0,0,1,1.03,1.41,4.832,4.832,0,0,1-.28.72,1.8,1.8,0,0,1-1.82.87h-5.46a27.69,27.69,0,0,1-5.54-.64c-4.16-.96-4.38-1.03-4.64-1.1a0.992,0.992,0,0,1-.84-0.89l-0.01-13.81a1.083,1.083,0,0,1,.79-1.04,1.306,1.306,0,0,0,.21-0.08c4.57-1.89,5.96-6.04,6-9.44a1.008,1.008,0,0,1,1-1c1.06,0,2.93,2.12,2.93,4.75a11.984,11.984,0,0,1-.93,5.25c10,0,9.93.14,10.81,0.37a1.534,1.534,0,0,1,1.19,1.53C1499,4325.25,1498.99,4325.2,1498.98,4325.53ZM1473.5,4337a1.5,1.5,0,1,0,1.5,1.5A1.5,1.5,0,0,0,1473.5,4337Zm0,2a0.5,0.5,0,0,1-.5-0.5,0.5,0.5,0,0,1,1,0A0.5,0.5,0,0,1,1473.5,4339Z" transform="translate(-1469 -4311)"/>
</svg>
