<svg xmlns="http://www.w3.org/2000/svg" width="16" height="10.5" viewBox="0 0 16 10.5">
  <defs>
    <style>
      .cls-1 {
        fill: gray;
        fill-rule: evenodd;
      }
    </style>
  </defs>
  <path id="mail" class="cls-1" d="M987,12094.2H975a2,2,0,0,0-2,2v6.5a1.941,1.941,0,0,0,2,2h12a1.942,1.942,0,0,0,2-2v-6.5A2,2,0,0,0,987,12094.2Zm-13,2.7,3.5,2.6-3.5,2.6v-5.2Zm14,5.8a0.972,0.972,0,0,1-1,1H975a0.972,0.972,0,0,1-1-1l3.916-2.9,2.184,1.6a1.5,1.5,0,0,0,1.8,0l2.184-1.6,3.916,2.9h0Zm0-.6-3.5-2.6,3.5-2.6v5.2Zm-6.4-1.1a1,1,0,0,1-1.2,0l-2.068-1.5-0.416-.3-3.916-3h0a1.036,1.036,0,0,1,1-1h12a1.036,1.036,0,0,1,1,1Z" transform="translate(-973 -12094.3)"/>
</svg>
