<svg xmlns="http://www.w3.org/2000/svg" width="17.938" height="18" viewBox="0 0 17.938 18">
  <defs>
    <style>
      .cls-1 {
        fill: gray;
        fill-rule: evenodd;
      }
    </style>
  </defs>
  <path id="pen" class="cls-1" d="M987.5,12147.5a4.935,4.935,0,0,0-3.33-1.5,3.61,3.61,0,0,0-2.614,1.1l-2.726,2.7c-0.008,0-.018,0-0.026.1H978.8l-5.785,5.8a2.372,2.372,0,0,0-.567,1l-1.316,4.7a3.886,3.886,0,0,0-.087.6,1.985,1.985,0,0,0,1.963,2,4.489,4.489,0,0,0,.648-0.1l4.747-1.3a1.973,1.973,0,0,0,.955-0.6l8.547-8.6C989.455,12151.9,989.28,12149.3,987.5,12147.5Zm-7.493,11.9a5.012,5.012,0,0,0-.4-1.5l5.294-5.3a2.731,2.731,0,0,1-.552,2.8h-0.007l-4.328,4.4A3.379,3.379,0,0,0,980.008,12159.4Zm-0.684-2a4.034,4.034,0,0,0-.74-1,5.4,5.4,0,0,0-1.145-.8l5.338-5.4a5.671,5.671,0,0,1,1.175.8,5.1,5.1,0,0,1,.717,1Zm-2.412-2.1a4.456,4.456,0,0,0-1.606-.3l4.314-4.4a2.9,2.9,0,0,1,2.569-.6Zm-3.538,7.5h-0.38a0.782,0.782,0,0,1-.834-0.8,1.153,1.153,0,0,1,.057-0.3l0.589-2.2a2.859,2.859,0,0,1,1.871.8,2.714,2.714,0,0,1,.78,1.9Zm2.635-.7a3.123,3.123,0,0,0-.936-2.2,2.932,2.932,0,0,0-2.109-.9l0.558-2a0.713,0.713,0,0,1,.219-0.4,3.2,3.2,0,0,1,4.051.6,3.1,3.1,0,0,1,.488,4.2,0.2,0.2,0,0,1-.2.1Zm11.1-9.5-0.944,1c0-.1.015-0.3,0-0.4a4.6,4.6,0,0,0-1.424-2.9,4.488,4.488,0,0,0-3.32-1.5l0.928-.9a2.386,2.386,0,0,1,1.819-.7,3.687,3.687,0,0,1,2.539,1.1,3.542,3.542,0,0,1,1.123,2.3A2.472,2.472,0,0,1,987.108,12152.6Z" transform="translate(-971.031 -12146)"/>
</svg>
