<svg xmlns="http://www.w3.org/2000/svg" width="21.25" height="17" viewBox="0 0 21.25 17">
  <defs>
    <style>
      .cls-1 {
        fill: #fff;
        fill-rule: evenodd;
      }
    </style>
  </defs>
  <path id="slideshow" class="cls-1" d="M1110.65,10127.7H1092.8a1.662,1.662,0,0,1-1.7-1.7v-13.6a1.725,1.725,0,0,1,1.7-1.7h17.85a1.725,1.725,0,0,1,1.7,1.7v13.6A1.662,1.662,0,0,1,1110.65,10127.7Zm0-15.3H1092.8v13.6h17.85v-13.6Zm-13.05,10.4,2.54-4.3,2.54,2.7,3.5-5.6,3.65,9.6h-16.2l2.07-4.4Zm-1.4-7.8a1.662,1.662,0,0,1,1.7,1.7,1.7,1.7,0,0,1-3.4,0A1.662,1.662,0,0,1,1096.2,10115Z" transform="translate(-1091.09 -10110.7)"/>
</svg>
