<svg xmlns="http://www.w3.org/2000/svg" width="32" height="28" viewBox="0 0 32 28">
  <defs>
    <style>
      .cls-1 {
        fill: #f39c12;
        fill-rule: evenodd;
      }
    </style>
  </defs>
  <path id="stack" class="cls-1" d="M833.924,4329.45l-4-15A2.008,2.008,0,0,0,828,4313H808a2.008,2.008,0,0,0-1.922,1.45l-4,15a2.1,2.1,0,0,0-.076.55v7a4,4,0,0,0,4,4h24a4,4,0,0,0,4-4v-7A2.1,2.1,0,0,0,833.924,4329.45ZM832,4337a2,2,0,0,1-2,2H806a2,2,0,0,1-2-2v-7l4-15h20l4,15v7Zm-6.258-20H810.258a1,1,0,0,0-.967.74l-3.445,12a1,1,0,0,0,.966,1.26h4.569l1.447,2.89a2,2,0,0,0,1.789,1.11h6.766a2,2,0,0,0,1.789-1.11l1.447-2.89h4.568a1,1,0,0,0,.967-1.26l-3.445-12A1,1,0,0,0,825.742,4317Zm0.539,12h-1.662a1.989,1.989,0,0,0-1.789,1.1l-1.447,2.9h-6.766l-1.447-2.9a1.989,1.989,0,0,0-1.789-1.1h-4.047l2.924-11h15.484l2.924,11h-2.385Z" transform="translate(-802 -4313)"/>
</svg>
