<svg xmlns="http://www.w3.org/2000/svg" width="27.188" height="26.38" viewBox="0 0 27.188 26.38">
  <defs>
    <style>
      .cls-1 {
        fill: #0d0d0d;
        fill-rule: evenodd;
      }
    </style>
  </defs>
  <path id="star" class="cls-1" d="M599.5,5092.15a1.962,1.962,0,0,0-1.566-1.29l-7.077-1.05-3.077-6.39a1.987,1.987,0,0,0-3.556,0l-3.077,6.39-7.078,1.05a1.961,1.961,0,0,0-1.565,1.29,1.872,1.872,0,0,0,.456,1.94l5.187,5.18-1.2,7.18a1.9,1.9,0,0,0,.806,1.88,2.006,2.006,0,0,0,1.131.34,2.116,2.116,0,0,0,.951-0.23l6.17-3.33,6.171,3.33a2.114,2.114,0,0,0,.949.23,2,2,0,0,0,1.132-.34,1.9,1.9,0,0,0,.806-1.88l-1.2-7.18,5.187-5.18A1.87,1.87,0,0,0,599.5,5092.15Zm-7.049,5.78a1.9,1.9,0,0,0-.532,1.65l1.2,7.18-6.17-3.32a2,2,0,0,0-1.9,0l-6.171,3.32,1.2-7.18a1.9,1.9,0,0,0-.532-1.65l-5.187-5.18,7.078-1.05a1.965,1.965,0,0,0,1.481-1.08l3.077-6.38,3.077,6.38a1.964,1.964,0,0,0,1.481,1.08l7.078,1.05Z" transform="translate(-572.406 -5082.31)"/>
</svg>
