<svg xmlns="http://www.w3.org/2000/svg" width="16.625" height="16.6" viewBox="0 0 16.625 16.6">
  <defs>
    <style>
      .cls-1 {
        fill: #f39c12;
        fill-rule: evenodd;
      }
    </style>
  </defs>
  <path id="user" class="cls-1" d="M988.857,12050.4a14.406,14.406,0,0,0-4.822-1.9,11.73,11.73,0,0,0,1.982-4.3,8.981,8.981,0,0,0-1.323-6.8,4.863,4.863,0,0,0-7.388,0,8.976,8.976,0,0,0-1.323,6.8,11.73,11.73,0,0,0,1.982,4.3,14.406,14.406,0,0,0-4.822,1.9,1.08,1.08,0,0,0-.418,1.2,1.055,1.055,0,0,0,1,.7h14.56a1.055,1.055,0,0,0,1-.7A1.08,1.08,0,0,0,988.857,12050.4Zm-5.639-2.6-0.17.3a2.523,2.523,0,0,1-4.1,0l-0.17-.3a8.677,8.677,0,0,1-1.857-6.5c0.284-2.3,1.559-4.6,4.076-4.6s3.792,2.3,4.076,4.6A8.678,8.678,0,0,1,983.218,12047.8Zm-9.5,3.5a13.291,13.291,0,0,1,4.465-1.8l1.291-.3a2.571,2.571,0,0,0,3.047,0l1.292,0.3a13.871,13.871,0,0,1,4.465,1.8H973.72Z" transform="translate(-972.688 -12035.7)"/>
</svg>
