<svg xmlns="http://www.w3.org/2000/svg" width="27.88" height="27.88" viewBox="0 0 27.88 27.88">
  <defs>
    <style>
      .cls-1 {
        fill: #0d0d0d;
        fill-rule: evenodd;
      }
    </style>
  </defs>
  <path id="world" class="cls-1" d="M1387.5,5081.55a13.95,13.95,0,1,0,13.95,13.95A13.949,13.949,0,0,0,1387.5,5081.55Zm12.13,13.5h-5.4a17.912,17.912,0,0,0-1.03-5.64,14.922,14.922,0,0,0,3.36-1.98A12.1,12.1,0,0,1,1399.63,5095.05ZM1387,5107.62a14.371,14.371,0,0,1-3.67-4.74,13.855,13.855,0,0,1,3.72-.61v5.36C1387.03,5107.63,1387.02,5107.62,1387,5107.62Zm1-24.25a14.7,14.7,0,0,1,4.02,5.52,14.091,14.091,0,0,1-4.07.74v-6.26H1388Zm1.5,0.16a12.061,12.061,0,0,1,6.44,3.25,13.731,13.731,0,0,1-3.08,1.8A15.88,15.88,0,0,0,1389.5,5083.53Zm-2.45-.16v6.26a14.091,14.091,0,0,1-4.07-.74,14.7,14.7,0,0,1,4.02-5.52h0.05Zm-4.91,5.21a13.731,13.731,0,0,1-3.08-1.8,12.061,12.061,0,0,1,6.44-3.25A15.88,15.88,0,0,0,1382.14,5088.58Zm0.5,1.14a14.974,14.974,0,0,0,4.41.81v4.52h-5.38A17.085,17.085,0,0,1,1382.64,5089.72Zm4.41,6.23v5.42a14.973,14.973,0,0,0-4.09.69,17.129,17.129,0,0,1-1.29-6.11h5.38Zm-1.55,11.52a12.122,12.122,0,0,1-5.89-2.75,14.352,14.352,0,0,1,2.87-1.53A15.8,15.8,0,0,0,1385.5,5107.47Zm2.45,0.16v-5.36a13.855,13.855,0,0,1,3.72.61,14.371,14.371,0,0,1-3.67,4.74C1387.98,5107.62,1387.97,5107.63,1387.95,5107.63Zm4.57-4.44a14.352,14.352,0,0,1,2.87,1.53,12.122,12.122,0,0,1-5.89,2.75A15.8,15.8,0,0,0,1392.52,5103.19Zm-0.48-1.13a14.973,14.973,0,0,0-4.09-.69v-5.42h5.38A17.129,17.129,0,0,1,1392.04,5102.06Zm-4.09-7.01v-4.52a14.848,14.848,0,0,0,4.4-.81,16.805,16.805,0,0,1,.98,5.33h-5.38Zm-9.51-7.62a14.7,14.7,0,0,0,3.36,1.98,17.912,17.912,0,0,0-1.03,5.64h-5.4A12.1,12.1,0,0,1,1378.44,5087.43Zm-3.07,8.52h5.4a17.943,17.943,0,0,0,1.35,6.42,14.847,14.847,0,0,0-3.18,1.74A12.1,12.1,0,0,1,1375.37,5095.95Zm20.69,8.16a14.847,14.847,0,0,0-3.18-1.74,17.943,17.943,0,0,0,1.35-6.42h5.4A12.1,12.1,0,0,1,1396.06,5104.11Z" transform="translate(-1373.56 -5081.56)"/>
</svg>
