<svg height="682pt" viewBox="-165 -21 682 682.66669" width="682pt" xmlns="http://www.w3.org/2000/svg"><path d="m191.816406 561.523438h-18.75v-18.75h18.75zm-31.25 0h-18.75v-18.75h18.75zm0 0"/><path d="m137.890625 524.023438h57.851563v-348.398438h-57.851563zm18.75-329.648438h20.351563v310.898438h-20.351563zm0 0"/><path d="m95.453125 505.273438h-20.355469v-201.523438h-18.75v220.273438h57.855469v-220.273438h-18.75zm0 0"/><path d="m219.425781 524.023438h57.859375v-348.398438h-57.859375zm18.75-329.648438h20.359375v310.898438h-20.359375zm0 0"/><path d="m304.757812 114.648438h-275.890624l-38.117188 38.117187v408.136719l38.117188 38.121094h27.863281v40.976562h57.085937v-40.976562h105.996094v40.976562h57.085938v-40.976562h27.867187l38.113281-38.121094v-408.136719zm-204.367187 110.976562h-50.539063v-36.710938l25.269532-18.539062 25.269531 18.539062zm-50.539063 18.75h50.539063v18.75h-50.539063zm45.214844 376.875h-19.585937v-22.226562h19.585937zm163.078125 0h-19.582031v-22.226562h19.582031zm65.984375-68.109375-27.132812 27.132813h-260.363282l-27.132812-27.132813v-392.613281l27.132812-27.128906h29.109376v20.601562l-34.640626 25.417969v102.457031h88.039063v-102.460938l-34.648437-25.414062v-20.605469h212.503906l27.132812 27.132813zm0 0"/><path d="m70.644531 92.773438h18.75v-31.109376h18.75v31.109376h18.75v-31.109376h80.03125v31.109376h18.75v-31.109376h18.75v31.109376h18.75v-31.109376h12.304688v-61.664062h-217.335938v61.664062h12.5zm6.25-74.023438h179.835938v24.164062h-179.835938zm0 0"/></svg>