<?xml version="1.0"?>
<svg xmlns="http://www.w3.org/2000/svg" xmlns:xlink="http://www.w3.org/1999/xlink" width="512px" version="1.1" height="512px" viewBox="0 0 64 64" enable-background="new 0 0 64 64" class=""><g><g>
    <path fill="#FCFDFD" d="m32,0c-17.645,0-32,14.355-32,32s14.355,32 32,32 32-14.355 32-32-14.355-32-32-32zm28,32.004c-7.77-2.025-14.551-2.107-20.402-0.996-0.855-1.969-1.734-3.869-2.625-5.68 6.141-2.469 11.957-6.104 16.438-11.338 4.105,4.873 6.589,11.155 6.589,18.01 0,0.002 0,0.002 0,0.004zm-9.377-20.856c-4.102,4.898-9.635,8.254-15.5,10.549-4.115-7.799-8.133-13.666-10.357-16.715 2.312-0.621 4.73-0.982 7.234-0.982 7.154,0 13.668,2.719 18.623,7.148zm-29.826-4.791c1.805,2.428 6.051,8.42 10.463,16.695-10.928,3.404-22.115,3.586-26.715,3.482 1.801-9.061 7.99-16.554 16.252-20.177zm-16.797,25.643c0-0.494 0.051-0.975 0.074-1.463 0.748,0.025 1.672,0.045 2.758,0.045 5.844,0 16.168-0.574 26.307-3.873 0.836,1.686 1.664,3.445 2.475,5.273-13.445,4.045-21.23,14.258-24.189,18.941-4.593-4.989-7.425-11.624-7.425-18.923zm10.359,21.717c2.188-3.807 9.328-14.383 22.787-18.129 2.717,6.684 5.047,14.113 6.346,21.918-3.512,1.588-7.394,2.494-11.492,2.494-6.684,0-12.82-2.361-17.641-6.283zm32.85,1.76c-1.342-7.398-3.529-14.406-6.057-20.752 5.309-0.842 11.461-0.604 18.52,1.334-1.188,8.125-5.856,15.123-12.463,19.418z" data-original="#1D1D1B" class="active-path" data-old_color="#1D1D1B"/>
  </g></g> </svg>
